<svg height="60%" viewBox="0 0 337 291" fill="none" xmlns="http://www.w3.org/2000/svg"><path d="M21.5498 15.0475C33.2701 43.3854 51.5616 87.6111 51.5616 87.6111C51.5616 87.6111 69.8531 131.837 81.5734 160.175" stroke="white" stroke-width="26" stroke-linecap="round"/>
<line x1="13" y1="-13" x2="207.05" y2="-13" transform="matrix(0.382194 0.924082 -0.952341 0.305036 130.612 8)" stroke="black" stroke-width="26" stroke-linecap="round"/>
<line x1="13" y1="-13" x2="189.05" y2="-13" transform="matrix(0.382194 0.924082 -0.952341 0.305036 130.612 8)" stroke="white" stroke-width="26" stroke-linecap="round"/>
<line x1="13" y1="-13" x2="170.05" y2="-13" transform="matrix(-0.382194 0.924082 -0.952341 -0.305036 137.685 0)" stroke="white" stroke-width="26" stroke-linecap="round"/>
<line x1="13" y1="-13" x2="289" y2="-13" transform="matrix(-0.382194 0.924082 -0.952341 -0.305036 279.681 7)" stroke="white" stroke-width="26" stroke-linecap="round"/>
<line x1="13" y1="-13" x2="65" y2="-13" transform="matrix(-1 0 -0.0821013 -0.996624 208.201 126)" stroke="white" stroke-width="26" stroke-linecap="round"/>
<circle cx="146.201" cy="211" r="20" fill="#FFC93C"/>
<circle cx="20.2012" cy="211" r="20" fill="#FFC93C"/>
</svg>