<svg width="24" height="24" viewBox="0 0 39 32" fill="none" xmlns="http://www.w3.org/2000/svg">
<path d="M34.24 8.67391V9.67391C34.24 19.7439 26.6 31.2839 12.62 31.2839C8.49294 31.2928 4.45353 30.0935 1 27.8339C1.59978 27.9154 2.20477 27.9521 2.81 27.9439C6.23101 27.9533 9.55582 26.8122 12.25 24.7039C10.6607 24.6805 9.11917 24.1567 7.84456 23.207C6.56995 22.2574 5.6271 20.9301 5.15 19.4139C5.62341 19.5143 6.10607 19.5645 6.59 19.5639C7.26576 19.5641 7.93847 19.4732 8.59 19.2939C6.86858 18.9507 5.31992 18.02 4.209 16.661C3.09808 15.302 2.49395 13.5992 2.5 11.8439V11.7439C3.5532 12.3322 4.73397 12.6549 5.94 12.6839C4.3346 11.6275 3.19318 9.99789 2.74897 8.12812C2.30476 6.25834 2.59128 4.28952 3.55 2.62391C5.46026 4.9734 7.84359 6.89458 10.545 8.26253C13.2465 9.63049 16.2056 10.4146 19.23 10.5639C19.0803 9.99633 19.0096 9.41081 19.02 8.82391C18.9637 7.27282 19.3868 5.74206 20.2317 4.44007C21.0766 3.13808 22.3023 2.12813 23.7418 1.54773C25.1813 0.967335 26.7647 0.8447 28.2764 1.19653C29.7881 1.54835 31.1547 2.35754 32.19 3.51391C33.8918 3.17048 35.5242 2.54521 37.02 1.66391C36.4528 3.45528 35.2461 4.97522 33.63 5.93391C35.1396 5.7259 36.6114 5.30154 38 4.67391C36.9936 6.21955 35.7205 7.57396 34.24 8.67391V8.67391Z" stroke="black" stroke-linecap="round" stroke-linejoin="round"/>
</svg>
